<svg xmlns="http://www.w3.org/2000/svg" xmlns:xlink="http://www.w3.org/1999/xlink" width="200" zoomAndPan="magnify" viewBox="0 0 150 149.999998" height="200" preserveAspectRatio="xMidYMid meet" version="1.0"><defs><g/><clipPath id="d58ed5027b"><path d="M 32.25 0 L 117.75 0 C 135.5625 0 150 14.4375 150 32.25 L 150 117.75 C 150 135.5625 135.5625 150 117.75 150 L 32.25 150 C 14.4375 150 0 135.5625 0 117.75 L 0 32.25 C 0 14.4375 14.4375 0 32.25 0 Z M 32.25 0 " clip-rule="nonzero"/></clipPath><clipPath id="90ebe85718"><path d="M 0 0 L 150 0 L 150 150 L 0 150 Z M 0 0 " clip-rule="nonzero"/></clipPath><clipPath id="ed07d982e8"><path d="M 32.25 0 L 117.75 0 C 135.5625 0 150 14.4375 150 32.25 L 150 117.75 C 150 135.5625 135.5625 150 117.75 150 L 32.25 150 C 14.4375 150 0 135.5625 0 117.75 L 0 32.25 C 0 14.4375 14.4375 0 32.25 0 Z M 32.25 0 " clip-rule="nonzero"/></clipPath><linearGradient x1="0" gradientTransform="matrix(0.585937, 0, 0, 0.585937, 0.00000125, 0.000002)" y1="128" x2="255.999995" gradientUnits="userSpaceOnUse" y2="128" id="a69f0c97b1"><stop stop-opacity="1" stop-color="rgb(41.569519%, 39.219666%, 94.898987%)" offset="0"/><stop stop-opacity="1" stop-color="rgb(41.740417%, 39.181519%, 94.923401%)" offset="0.03125"/><stop stop-opacity="1" stop-color="rgb(42.08374%, 39.108276%, 94.972229%)" offset="0.0625"/><stop stop-opacity="1" stop-color="rgb(42.427063%, 39.035034%, 95.021057%)" offset="0.09375"/><stop stop-opacity="1" stop-color="rgb(42.76886%, 38.960266%, 95.071411%)" offset="0.125"/><stop stop-opacity="1" stop-color="rgb(43.112183%, 38.887024%, 95.120239%)" offset="0.15625"/><stop stop-opacity="1" stop-color="rgb(43.455505%, 38.813782%, 95.169067%)" offset="0.1875"/><stop stop-opacity="1" stop-color="rgb(43.798828%, 38.739014%, 95.217896%)" offset="0.21875"/><stop stop-opacity="1" stop-color="rgb(44.142151%, 38.665771%, 95.266724%)" offset="0.25"/><stop stop-opacity="1" stop-color="rgb(44.485474%, 38.592529%, 95.315552%)" offset="0.28125"/><stop stop-opacity="1" stop-color="rgb(44.828796%, 38.517761%, 95.365906%)" offset="0.3125"/><stop stop-opacity="1" stop-color="rgb(45.172119%, 38.444519%, 95.414734%)" offset="0.34375"/><stop stop-opacity="1" stop-color="rgb(45.513916%, 38.371277%, 95.463562%)" offset="0.375"/><stop stop-opacity="1" stop-color="rgb(45.857239%, 38.296509%, 95.51239%)" offset="0.40625"/><stop stop-opacity="1" stop-color="rgb(46.200562%, 38.223267%, 95.561218%)" offset="0.4375"/><stop stop-opacity="1" stop-color="rgb(46.543884%, 38.150024%, 95.610046%)" offset="0.46875"/><stop stop-opacity="1" stop-color="rgb(46.887207%, 38.075256%, 95.658875%)" offset="0.5"/><stop stop-opacity="1" stop-color="rgb(47.23053%, 38.002014%, 95.709229%)" offset="0.53125"/><stop stop-opacity="1" stop-color="rgb(47.573853%, 37.928772%, 95.758057%)" offset="0.5625"/><stop stop-opacity="1" stop-color="rgb(47.915649%, 37.854004%, 95.806885%)" offset="0.59375"/><stop stop-opacity="1" stop-color="rgb(48.258972%, 37.780762%, 95.855713%)" offset="0.625"/><stop stop-opacity="1" stop-color="rgb(48.602295%, 37.70752%, 95.904541%)" offset="0.65625"/><stop stop-opacity="1" stop-color="rgb(48.945618%, 37.632751%, 95.953369%)" offset="0.6875"/><stop stop-opacity="1" stop-color="rgb(49.28894%, 37.559509%, 96.003723%)" offset="0.71875"/><stop stop-opacity="1" stop-color="rgb(49.632263%, 37.486267%, 96.052551%)" offset="0.75"/><stop stop-opacity="1" stop-color="rgb(49.975586%, 37.411499%, 96.101379%)" offset="0.78125"/><stop stop-opacity="1" stop-color="rgb(50.318909%, 37.338257%, 96.150208%)" offset="0.8125"/><stop stop-opacity="1" stop-color="rgb(50.660706%, 37.265015%, 96.199036%)" offset="0.84375"/><stop stop-opacity="1" stop-color="rgb(51.004028%, 37.190247%, 96.247864%)" offset="0.875"/><stop stop-opacity="1" stop-color="rgb(51.347351%, 37.117004%, 96.296692%)" offset="0.90625"/><stop stop-opacity="1" stop-color="rgb(51.690674%, 37.043762%, 96.347046%)" offset="0.9375"/><stop stop-opacity="1" stop-color="rgb(52.033997%, 36.968994%, 96.395874%)" offset="0.96875"/><stop stop-opacity="1" stop-color="rgb(52.377319%, 36.895752%, 96.444702%)" offset="1"/></linearGradient><clipPath id="9a8bc855b6"><rect x="0" width="150" y="0" height="150"/></clipPath></defs><g clip-path="url(#d58ed5027b)"><g transform="matrix(1, 0, 0, 1, 0, -0.000000000000007527)"><g clip-path="url(#9a8bc855b6)"><g clip-path="url(#90ebe85718)"><g clip-path="url(#ed07d982e8)"><rect x="-33" fill="url(#a69f0c97b1)" width="216" height="215.999996" y="-32.999999"/></g></g></g></g></g><g fill="#ffffff" fill-opacity="1"><g transform="translate(48.436522, 99.272032)"><g><path d="M 26.46875 -47.234375 C 26.644531 -47.234375 26.820312 -46.921875 27 -46.296875 C 27.09375 -45.890625 27.179688 -45.53125 27.265625 -45.21875 C 28.566406 -40.445312 31.414062 -36.003906 35.8125 -31.890625 C 40.207031 -27.785156 44.972656 -25.082031 50.109375 -23.78125 C 50.609375 -23.695312 50.859375 -23.519531 50.859375 -23.25 C 50.859375 -22.9375 50.585938 -22.734375 50.046875 -22.640625 C 44.691406 -21.484375 39.703125 -18.554688 35.078125 -13.859375 C 30.453125 -9.171875 27.648438 -4.484375 26.671875 0.203125 C 26.535156 0.648438 26.351562 0.875 26.125 0.875 C 25.863281 0.875 25.707031 0.628906 25.65625 0.140625 C 25.207031 -2.273438 24.234375 -4.800781 22.734375 -7.4375 C 21.242188 -10.070312 19.472656 -12.375 17.421875 -14.34375 C 15.628906 -16.125 13.210938 -17.90625 10.171875 -19.6875 C 7.140625 -21.476562 4.773438 -22.550781 3.078125 -22.90625 C 2.585938 -23.039062 2.34375 -23.242188 2.34375 -23.515625 C 2.34375 -23.828125 3 -24.148438 4.3125 -24.484375 C 5.632812 -24.816406 7.535156 -25.609375 10.015625 -26.859375 C 12.492188 -28.117188 14.828125 -29.882812 17.015625 -32.15625 C 19.253906 -34.4375 21.207031 -36.925781 22.875 -39.625 C 24.550781 -42.332031 25.566406 -44.625 25.921875 -46.5 C 26.015625 -46.988281 26.195312 -47.234375 26.46875 -47.234375 Z M 26.46875 -47.234375 "/></g></g></g></svg>